# 
# Wavefront OBJ file
# Converted by the DEEP Exploration Deep Exploration 5 5.0.3.1555 Release
# Right Hemisphere, LTD
# http://www.righthemisphere.com/
# 
mtllib axe2a.mtl
# object object
g object
v -0.05250 -0.03690 1.20627
v -0.05250 0.03690 1.20627
v -0.05250 -0.03690 1.28627
v -0.05250 0.03690 1.28627
v -0.05250 -0.03690 1.04627
v -0.05250 0.03690 1.04627
v -0.03087 -0.03690 0.88627
v -0.03087 0.03690 0.88627
v -0.57750 -0.02214 1.08275
v -0.57750 0.02214 1.08275
v -0.57250 0.02214 1.19616
v -0.57250 -0.02214 1.19616
v -0.53750 -0.02214 1.28116
v -0.53750 0.02214 1.28116
v -0.48250 -0.02214 1.35616
v -0.48250 0.02214 1.35616
v -0.38750 -0.02214 1.45616
v -0.38750 0.02214 1.45616
v -0.29250 -0.02214 1.53116
v -0.29250 0.02214 1.53116
v -0.21250 -0.02214 1.57616
v -0.21250 0.02214 1.57616
v -0.56750 -0.02214 1.00775
v -0.56750 0.02214 1.00775
v -0.53750 -0.02214 0.91775
v -0.53750 0.02214 0.91775
v -0.49250 -0.02214 0.83275
v -0.49250 0.02214 0.83275
v -0.41750 -0.02214 0.75775
v -0.41750 0.02214 0.75775
v -0.31250 -0.02214 0.69775
v -0.31250 0.02214 0.69775
v -0.35250 0.00000 1.55641
v -0.46750 0.00000 1.47266
v -0.55250 0.00000 1.37766
v -0.59250 0.00000 1.29391
v -0.23250 0.00000 1.60366
v -0.62250 0.00000 1.19966
v -0.46750 0.00000 0.73933
v -0.54750 0.00000 0.81808
v -0.59250 0.00000 0.90733
v -0.62250 0.00000 1.00183
v -0.32250 0.00000 0.65633
v -0.63250 0.00000 1.08058
v 0.05250 -0.03690 1.20627
v 0.05250 0.03690 1.20627
v 0.05250 -0.03690 1.28627
v 0.05250 0.03690 1.28627
v 0.05250 -0.03690 1.04627
v 0.05250 0.03690 1.04627
v 0.03087 -0.03690 0.88627
v 0.03087 0.03690 0.88627
v -0.03087 -0.07027 -1.33213
v -0.03087 0.07027 -1.33213
v -0.03087 -0.07027 -1.52023
v -0.03087 0.07027 -1.52023
v 0.03087 -0.07027 -1.33213
v 0.03087 0.07027 -1.33213
v 0.03087 -0.07027 -1.52023
v 0.03087 0.07027 -1.52023
v 0.00000 0.00000 1.42627
v -0.12750 0.00000 1.60573
v -0.14250 -0.02214 1.59242
v -0.14250 0.02214 1.59242
v -0.19250 -0.02214 1.52242
v -0.19250 0.02214 1.52242
v -0.21250 -0.02214 1.46242
v -0.21250 0.02214 1.46242
v 0.21250 -0.01638 1.24242
v 0.21250 0.01638 1.24242
v 0.08250 -0.02214 1.28627
v 0.08250 -0.02214 1.20627
v 0.08250 0.02214 1.28627
v 0.08250 0.02214 1.20627
v -0.22750 -0.02214 1.38242
v -0.22750 0.02214 1.38242
v -0.22750 -0.02214 1.30742
v -0.22750 0.02214 1.30742
v -0.21250 -0.02214 1.24242
v -0.21250 0.02214 1.24242
v -0.08250 -0.02214 1.28627
v -0.08250 -0.02214 1.20627
v -0.08250 0.02214 1.28627
v -0.08250 0.02214 1.20627
v 0.00000 0.04948 1.28627
v 0.00000 -0.04948 1.28627
v 0.00000 0.04948 1.20627
v 0.00000 -0.04948 1.20627
v 0.17250 -0.01638 1.18843
v 0.17250 0.01638 1.18843
v 0.13250 -0.01638 1.17447
v 0.13250 0.01638 1.17447
v 0.21250 -0.01638 1.02240
v 0.21250 0.01638 1.02240
v 0.17250 0.01638 1.04511
v 0.17250 -0.01638 1.04511
v 0.13250 0.01638 1.05888
v 0.13250 -0.01638 1.05888
v 0.08250 0.02214 1.04627
v 0.08250 -0.02214 1.04627
v -0.17250 -0.02214 1.18843
v -0.17250 0.02214 1.18843
v -0.13250 -0.02214 1.17447
v -0.13250 0.02214 1.17447
v -0.21250 -0.02214 1.02240
v -0.21250 0.02214 1.02240
v -0.17250 -0.02214 1.04511
v -0.17250 0.02214 1.04511
v -0.13250 -0.02214 1.05888
v -0.13250 0.02214 1.05888
v -0.08250 0.02214 1.04627
v -0.08250 -0.02214 1.04627
v 0.00000 0.04948 1.04627
v 0.00000 -0.04948 1.04627
v 0.57750 0.00885 1.08290
v 0.57750 -0.00885 1.08290
v 0.04851 0.02214 0.88627
v 0.04851 -0.02214 0.88627
v -0.27250 0.02214 0.86240
v -0.27250 -0.02214 0.86240
v -0.26250 0.02214 0.95240
v -0.26250 -0.02214 0.95240
v -0.04851 0.02214 0.88627
v -0.04851 -0.02214 0.88627
v 0.00000 0.04948 0.88627
v 0.00000 -0.04948 0.88627
v 0.04851 0.02214 0.63627
v 0.04851 -0.02214 0.63627
v 0.03087 0.03690 0.63627
v 0.03087 -0.03690 0.63627
v -0.15250 0.00000 0.62971
v -0.19250 0.02214 0.67240
v -0.19250 -0.02214 0.67240
v -0.23250 0.02214 0.72240
v -0.23250 -0.02214 0.72240
v -0.26250 0.02214 0.79240
v -0.26250 -0.02214 0.79240
v -0.04851 0.02214 0.63627
v -0.04851 -0.02214 0.63627
v -0.03087 0.03690 0.63627
v 0.00000 0.04948 0.63627
v 0.00000 -0.04948 0.63627
v -0.03087 -0.03690 0.63627
v 0.09051 0.02214 -1.33213
v 0.09051 -0.02214 -1.33213
v 0.04851 0.02214 -1.26373
v 0.04851 -0.02214 -1.26373
v 0.03087 0.03690 -1.26373
v 0.03087 -0.03690 -1.26373
v -0.09051 0.02214 -1.33213
v -0.09051 -0.02214 -1.33213
v 0.00000 0.07027 -1.33213
v 0.00000 -0.07027 -1.33213
v -0.04851 0.02214 -1.26373
v -0.04851 -0.02214 -1.26373
v -0.03087 0.03690 -1.26373
v -0.03087 -0.03690 -1.26373
v 0.00000 0.04948 -1.26373
v 0.00000 -0.04948 -1.26373
v 0.09051 0.02214 -1.52023
v 0.09051 -0.02214 -1.52023
v 0.04851 0.02214 -1.60573
v 0.04851 -0.02214 -1.60573
v 0.03087 0.03690 -1.60573
v 0.03087 -0.03690 -1.60573
v -0.04851 0.02214 -1.60573
v -0.04851 -0.02214 -1.60573
v -0.03087 0.03690 -1.60573
v 0.00000 0.03690 -1.60573
v 0.00000 -0.03690 -1.60573
v -0.03087 -0.03690 -1.60573
v -0.09051 0.02214 -1.52023
v -0.09051 -0.02214 -1.52023
v 0.00000 0.07027 -1.52023
v 0.00000 -0.07027 -1.52023
v 0.57250 0.00885 1.19642
v 0.57250 -0.00885 1.19616
v 0.61564 0.00000 1.16947
v 0.61845 0.00000 1.11034
v 0.57750 -0.00885 1.08275
v 0.57750 0.00885 1.08275
v 0.21250 -0.01638 1.24242
v 0.21250 0.01638 1.24242
v 0.08250 -0.02214 1.20627
v 0.08250 0.02214 1.20627
v 0.17250 -0.01638 1.18843
v 0.17250 0.01638 1.18843
v 0.13250 -0.01638 1.17447
v 0.13250 0.01638 1.17447
v 0.21250 -0.01638 1.02240
v 0.21250 0.01638 1.02240
v 0.17250 0.01638 1.04511
v 0.17250 -0.01638 1.04511
v 0.13250 0.01638 1.05888
v 0.13250 -0.01638 1.05888
v 0.08250 0.02214 1.04627
v 0.08250 -0.02214 1.04627
v 0.57250 0.00885 1.19642
v 0.57250 -0.00885 1.19616
v 0.61564 0.00000 1.16947
v 0.61845 0.00000 1.11034
# 201 verticies
vt 0.63500 0.57535
vt 0.63500 0.65407
vt 0.58312 0.65407
vt 0.58312 0.57535
vt 0.61980 0.58202
vt 0.68528 0.58202
vt 0.68528 0.48079
vt 0.61980 0.48079
vt 0.55348 0.65407
vt 0.55348 0.57535
vt 0.63500 0.41791
vt 0.60312 0.41791
vt 0.57348 0.41791
vt 0.63500 0.26047
vt 0.62450 0.26047
vt 0.60707 0.26047
vt 0.61781 0.97108
vt 0.67237 0.97108
vt 0.67237 0.76767
vt 0.61781 0.76767
vt 0.63500 0.01448
vt 0.62450 0.01448
vt 0.60707 0.01448
vt 0.67237 0.44985
vt 0.61781 0.44985
vt 0.67237 0.98710
vt 0.61781 0.98710
vt 0.50407 0.54405
vt 0.50407 0.43032
vt 0.68528 0.44054
vt 0.61980 0.44054
vt 0.67237 0.96959
vt 0.61781 0.96959
vt 0.46455 0.55779
vt 0.46455 0.41676
vt 0.68528 0.45821
vt 0.61980 0.45821
vt 0.67237 0.94073
vt 0.61781 0.94073
vt 0.42502 0.61091
vt 0.42502 0.39442
vt 0.68528 0.52653
vt 0.61980 0.52653
vt 0.06929 0.56540
vt 0.06435 0.45381
vt 0.41020 0.67487
vt 0.10387 0.64904
vt 0.68528 0.60877
vt 0.61980 0.60877
vt 0.41020 0.74867
vt 0.15822 0.72283
vt 0.68528 0.70367
vt 0.61980 0.70367
vt 0.42502 0.82739
vt 0.25209 0.82123
vt 0.68528 0.80490
vt 0.61980 0.80490
vt 0.44478 0.88643
vt 0.34597 0.89503
vt 0.68528 0.88082
vt 0.61980 0.88082
vt 0.49419 0.95531
vt 0.42502 0.93931
vt 0.68528 0.96939
vt 0.61980 0.96939
vt 0.07423 0.38001
vt 0.37561 0.32554
vt 0.67237 0.85174
vt 0.61781 0.85174
vt 0.10387 0.29145
vt 0.36573 0.23698
vt 0.67237 0.73732
vt 0.61781 0.73732
vt 0.14834 0.20781
vt 0.37561 0.16811
vt 0.67237 0.64833
vt 0.61781 0.64833
vt 0.22245 0.13401
vt 0.40526 0.09923
vt 0.67237 0.55934
vt 0.61781 0.55934
vt 0.32621 0.07498
vt 0.44478 0.05003
vt 0.67237 0.49578
vt 0.61781 0.49578
vt 0.01988 0.56884
vt 0.01000 0.45167
vt 0.31632 0.03421
vt 0.48431 0.00802
vt 0.64509 0.44150
vt 0.50901 0.96840
vt 0.40526 0.96636
vt 0.65254 0.98623
vt 0.04953 0.66158
vt 0.08905 0.74398
vt 0.17304 0.83746
vt 0.28668 0.91987
vt 0.01988 0.37418
vt 0.04953 0.28119
vt 0.09399 0.19337
vt 0.17304 0.11588
vt 0.63500 0.79182
vt 0.65254 0.75916
vt 0.58312 0.65407
vt 0.58312 0.57535
vt 0.60312 0.41791
vt 0.62450 0.26047
vt 0.62450 0.01448
vt 0.88245 0.96260
vt 0.88245 0.01825
vt 0.97320 0.01825
vt 0.97320 0.96260
vt 0.81184 0.01825
vt 0.81184 0.96260
vt 0.73184 0.01825
vt 0.73184 0.96260
vt 0.88245 0.01825
vt 0.88245 0.96260
vt 0.97320 0.96260
vt 0.70084 0.10720
vt 0.70084 0.32979
vt 0.68703 0.32979
vt 0.68703 0.10720
vt 0.60952 0.32979
vt 0.60952 0.10720
vt 0.70084 0.00602
vt 0.68703 0.00602
vt 0.66410 0.00602
vt 0.70084 0.41073
vt 0.68703 0.41073
vt 0.66410 0.41073
vt 0.68703 0.32979
vt 0.68703 0.10720
vt 0.68703 0.00602
vt 0.68703 0.41073
vt 0.70084 0.41073
vt 0.63241 0.74050
vt 0.68421 0.74050
vt 0.68421 0.53700
vt 0.63241 0.53700
vt 0.68421 0.44450
vt 0.63241 0.44450
vt 0.63241 0.81450
vt 0.68421 0.81450
vt 0.58862 0.68274
vt 0.62680 0.68274
vt 0.62680 0.60834
vt 0.58862 0.60834
vt 0.56680 0.66786
vt 0.56680 0.62322
vt 0.66498 0.68274
vt 0.66498 0.60834
vt 0.68680 0.66786
vt 0.68680 0.62322
vt 0.58759 0.45478
vt 0.67890 0.46638
vt 0.66075 0.49504
vt 0.59478 0.49504
vt 0.66872 0.51796
vt 0.58692 0.51796
vt 0.69953 0.54089
vt 0.57396 0.54089
vt 0.67313 0.74721
vt 0.60841 0.75008
vt 0.67313 0.74672
vt 0.67513 0.77587
vt 0.60717 0.78160
# 167 texture verticies
vn 0.00000 -1.00000 0.00000
vn 0.00000 -0.98556 0.16931
vn -0.31413 -0.93861 0.14261
vn -0.35429 -0.93514 0.00000
vn -0.31413 0.93861 0.14261
vn 0.00000 0.98556 0.16931
vn 0.00000 1.00000 0.00000
vn -0.33936 0.94066 0.00000
vn -0.83192 -0.52612 0.17638
vn -0.75128 0.62576 0.20978
vn -0.71393 0.68262 0.15601
vn -0.67126 -0.63451 0.38315
vn -0.39913 -0.91607 -0.03897
vn -0.36304 0.93159 -0.01852
vn -0.58023 -0.72193 -0.37703
vn -0.49935 0.82955 -0.25000
vn 0.00000 -0.99984 -0.01805
vn -0.51557 -0.85654 -0.02319
vn 0.00000 0.99984 -0.01805
vn -0.48027 0.87614 -0.04139
vn -0.88630 -0.45730 -0.07311
vn -0.90018 0.42350 -0.10167
vn -0.51576 -0.85673 0.00000
vn -0.51576 0.85673 0.00000
vn -0.90601 -0.42325 0.00000
vn -0.90601 0.42325 0.00000
vn -0.05656 0.00000 -0.99840
vn 0.14074 0.00000 -0.99005
vn -0.27201 0.00000 0.96229
vn 0.04480 0.00000 0.99900
vn 0.38306 0.00000 -0.92372
vn 0.43930 0.00000 -0.89834
vn 0.50750 0.00000 0.86165
vn 0.67190 0.00000 0.74064
vn 0.61314 0.00000 -0.78998
vn 0.72209 0.00000 -0.69179
vn 0.87682 0.00000 0.48081
vn 0.93488 0.00000 0.35498
vn -0.16623 0.98522 0.04142
vn -0.23432 0.97216 -0.00005
vn -0.16623 -0.98522 0.04142
vn -0.23432 -0.97216 -0.00005
vn -0.15650 0.98430 0.08159
vn 0.98857 0.00000 0.15077
vn 0.99715 0.00000 0.07538
vn -0.15650 -0.98430 0.08159
vn -0.11841 0.98778 0.10131
vn 0.99810 0.00000 -0.06166
vn 0.99237 0.00000 -0.12333
vn -0.11841 -0.98778 0.10131
vn -0.10953 0.98537 0.13058
vn 0.97349 0.00000 -0.22874
vn 0.96207 0.00000 -0.27281
vn -0.10953 -0.98537 0.13058
vn -0.11223 0.97318 0.20080
vn 0.91271 0.00000 -0.40860
vn 0.86728 0.00000 -0.49782
vn -0.11223 -0.97318 0.20080
vn -0.08091 0.93385 0.34839
vn -0.13395 0.82670 0.54646
vn 0.76801 0.00000 -0.64044
vn 0.74338 0.00000 -0.66887
vn -0.08091 -0.93385 0.34839
vn -0.13395 -0.82670 0.54646
vn -0.18673 -0.98173 -0.03671
vn 0.89955 0.00000 -0.43682
vn 0.96137 0.00000 -0.27525
vn -0.18673 0.98173 -0.03671
vn -0.17841 -0.98148 -0.06978
vn 0.99964 0.00000 -0.02667
vn 0.99832 0.00000 0.05788
vn -0.17841 0.98148 -0.06978
vn -0.16289 -0.98071 -0.10802
vn 0.97382 0.00000 0.22733
vn 0.95003 0.00000 0.31215
vn -0.16289 0.98071 -0.10802
vn -0.14016 -0.97519 -0.17132
vn 0.88016 0.00000 0.47468
vn 0.83369 0.00000 0.55223
vn -0.14016 0.97519 -0.17132
vn -0.11714 -0.95753 -0.26346
vn -0.06060 -0.94103 -0.33286
vn 0.76435 0.00000 0.64480
vn 0.75589 0.00000 0.65470
vn -0.11714 0.95753 -0.26346
vn -0.06060 0.94103 -0.33286
vn -0.39130 0.91842 0.05832
vn -0.37168 0.92811 -0.02164
vn -0.39130 -0.91842 0.05832
vn -0.37168 -0.92811 -0.02164
vn -0.13808 -0.87594 -0.46224
vn -0.08106 -0.85175 -0.51764
vn 0.72975 0.00000 0.68371
vn -0.13808 0.87594 -0.46224
vn -0.08106 0.85175 -0.51764
vn -0.14357 -0.00000 0.98964
vn -0.14874 0.84858 0.50774
vn 0.66364 0.00000 -0.74806
vn -0.14874 -0.84858 0.50774
vn -0.35756 -0.92298 0.14232
vn -0.35756 0.92298 0.14232
vn -0.27289 -0.94427 0.18409
vn -0.27289 0.94427 0.18409
vn -0.21960 -0.94739 0.23287
vn -0.21960 0.94739 0.23287
vn -0.19621 -0.92551 0.32395
vn -0.19621 0.92551 0.32395
vn -0.36053 0.92810 -0.09294
vn -0.36053 -0.92810 -0.09294
vn -0.34032 0.92787 -0.15247
vn -0.34032 -0.92787 -0.15247
vn -0.30473 0.91858 -0.25168
vn -0.30473 -0.91858 -0.25168
vn -0.25576 0.89081 -0.37556
vn -0.25576 -0.89081 -0.37556
vn 0.00000 0.00000 1.00000
vn 0.31413 -0.93861 0.14261
vn 0.35429 -0.93514 0.00000
vn 0.31413 0.93861 0.14261
vn 0.33936 0.94066 0.00000
vn 0.80745 0.56293 0.17645
vn 0.75128 0.62576 0.20978
vn 0.83192 -0.52612 0.17638
vn 0.76827 -0.46634 0.43851
vn 0.39913 -0.91607 -0.03897
vn 0.36304 0.93159 -0.01852
vn 0.71960 -0.51336 -0.46759
vn 0.68708 0.64000 -0.34398
vn 0.51557 -0.85654 -0.02319
vn 0.48027 0.87614 -0.04139
vn 0.88630 -0.45730 -0.07311
vn 0.90018 0.42350 -0.10167
vn 0.51576 -0.85673 0.00000
vn 0.51576 0.85673 0.00000
vn 0.90601 -0.42325 0.00000
vn 0.90601 0.42325 0.00000
vn 0.05656 0.00000 -0.99840
vn -0.14074 0.00000 -0.99005
vn 0.27201 0.00000 0.96229
vn -0.04480 0.00000 0.99900
vn -0.38306 0.00000 -0.92372
vn -0.43930 0.00000 -0.89834
vn -0.50750 0.00000 0.86165
vn -0.67190 0.00000 0.74064
vn -0.28930 0.00000 -0.95724
vn -0.05851 0.00000 -0.99829
vn -0.56129 0.00000 0.82762
vn -0.20821 -0.00545 0.97807
vn 0.26623 -0.00908 0.96387
vn 0.33551 -0.01365 0.94194
vn 0.52798 -0.01231 0.84917
vn 0.30058 0.00000 -0.95376
vn 0.36839 0.00000 -0.92967
vn 0.55660 0.00000 -0.83078
vn -0.41624 -0.88164 0.22238
vn 0.00000 -0.99516 0.09826
vn 0.00000 0.98201 0.18885
vn -0.54717 0.81412 0.19444
vn -0.80163 -0.55232 0.22875
vn -0.92394 0.27672 0.26413
vn 0.41624 -0.88164 0.22238
vn 0.54717 0.81412 0.19444
vn 0.80163 -0.55232 0.22875
vn 0.92394 0.27672 0.26413
vn 0.00000 -0.99240 -0.12308
vn 0.00000 -0.96917 0.24639
vn -0.37655 -0.90932 0.17705
vn -0.32929 -0.91481 -0.23384
vn -0.27688 0.94238 0.18778
vn 0.00000 0.98914 0.14697
vn 0.00000 0.99240 -0.12308
vn -0.33269 0.92524 -0.18234
vn -0.92241 -0.28213 0.26375
vn -0.87420 -0.43229 -0.22114
vn -0.79764 0.55702 0.23132
vn -0.88604 0.42152 -0.19300
vn 0.00000 -0.56411 -0.82570
vn -0.15144 -0.41047 -0.89921
vn 0.00000 0.73337 -0.67983
vn -0.25342 0.50303 -0.82628
vn -0.64464 -0.45114 -0.61718
vn -0.59336 0.18030 -0.78448
vn 0.37655 -0.90932 0.17705
vn 0.32929 -0.91481 -0.23384
vn 0.27688 0.94238 0.18778
vn 0.33269 0.92524 -0.18234
vn 0.87420 -0.43229 -0.22114
vn 0.92241 -0.28213 0.26375
vn 0.79764 0.55702 0.23132
vn 0.88604 0.42152 -0.19300
vn 0.15144 -0.41047 -0.89921
vn 0.25342 0.50303 -0.82628
vn 0.64464 -0.45114 -0.61718
vn 0.59336 0.18030 -0.78448
vn 0.11437 0.99344 0.00000
vn 0.07636 0.99708 0.00000
vn 0.03818 0.99927 0.00000
vn 0.07636 -0.99708 0.00000
vn 0.11437 -0.99344 0.00000
vn 0.03818 -0.99927 0.00000
vn 0.00698 0.99998 0.00000
vn 0.01381 0.99990 0.00030
vn 0.00698 -0.99998 0.00000
vn 0.01381 -0.99990 0.00030
vn 0.08291 0.99655 0.00334
vn 0.14447 0.98949 0.00660
vn 0.08290 -0.99655 0.00335
vn 0.14445 -0.98949 0.00661
vn 0.20561 0.97859 0.00941
vn 0.20488 0.97874 0.00975
vn 0.20559 -0.97859 0.00942
vn 0.20488 -0.97874 0.00975
# 212 normals
usemtl mat_axe2_1
f  88/1/1 86/2/2 3/3/3 1/4/4
f  4/3/5 85/2/6 87/1/7 2/4/8
f  81/5/9 83/6/10 84/7/11 82/8/12
f  83/9/10 4/3/5 2/4/8 84/10/11
f  1/4/4 3/3/3 81/9/9 82/10/12
f  114/11/1 88/1/1 1/4/4 5/12/13
f  2/4/8 87/1/7 113/11/7 6/12/14
f  1/4/4 82/10/12 112/13/15 5/12/13
f  84/10/11 2/4/8 6/12/14 111/13/16
f  126/14/17 114/11/1 5/12/13 7/15/18
f  6/12/14 113/11/7 125/14/19 8/15/20
f  5/12/13 112/13/15 124/16/21 7/15/18
f  111/13/16 6/12/14 8/15/20 123/16/22
f  112/17/15 111/18/16 123/19/22 124/20/21
f  142/21/1 126/14/17 7/15/18 143/22/23
f  8/15/20 125/14/19 141/21/7 140/22/24
f  7/15/18 124/16/21 139/23/25 143/22/23
f  123/16/22 8/15/20 140/22/24 138/23/26
f  124/20/21 123/19/22 138/24/26 139/25/25
f  110/26/27 111/18/16 112/17/15 109/27/28
f  104/28/7 84/10/11 111/13/16 110/29/7
f  82/8/12 84/7/11 104/30/29 103/31/30
f  112/13/15 82/10/12 103/28/1 109/29/1
f  108/32/31 110/26/27 109/27/28 107/33/32
f  102/34/7 104/28/7 110/29/7 108/35/7
f  103/31/30 104/30/29 102/36/33 101/37/34
f  109/29/1 103/28/1 101/34/1 107/35/1
f  106/38/35 108/32/31 107/33/32 105/39/36
f  80/40/7 102/34/7 108/35/7 106/41/7
f  101/37/34 102/36/33 80/42/37 79/43/38
f  107/35/1 101/34/1 79/40/1 105/41/1
f  11/44/39 80/40/7 106/41/7 10/45/40
f  105/41/1 79/40/1 12/44/41 9/45/42
f  78/46/7 80/40/7 11/44/39 14/47/43
f  79/43/38 80/42/37 78/48/44 77/49/45
f  12/44/41 79/40/1 77/46/1 13/47/46
f  76/50/7 78/46/7 14/47/43 16/51/47
f  77/49/45 78/48/44 76/52/48 75/53/49
f  13/47/46 77/46/1 75/50/1 15/51/50
f  68/54/7 76/50/7 16/51/47 18/55/51
f  75/53/49 76/52/48 68/56/52 67/57/53
f  15/51/50 75/50/1 67/54/1 17/55/54
f  66/58/7 68/54/7 18/55/51 20/59/55
f  67/57/53 68/56/52 66/60/56 65/61/57
f  17/55/54 67/54/1 65/58/1 19/59/58
f  64/62/59 66/58/7 20/59/55 22/63/60
f  65/61/57 66/60/56 64/64/61 63/65/62
f  19/59/58 65/58/1 63/62/63 21/63/64
f  105/41/1 9/45/42 23/66/65 122/67/1
f  121/68/66 106/38/35 105/39/36 122/69/67
f  24/66/68 10/45/40 106/41/7 121/67/7
f  122/67/1 23/66/65 25/70/69 120/71/1
f  119/72/70 121/68/66 122/69/67 120/73/71
f  26/70/72 24/66/68 121/67/7 119/71/7
f  120/71/1 25/70/69 27/74/73 137/75/1
f  136/76/74 119/72/70 120/73/71 137/77/75
f  28/74/76 26/70/72 119/71/7 136/75/7
f  137/75/1 27/74/73 29/78/77 135/79/1
f  134/80/78 136/76/74 137/77/75 135/81/79
f  30/78/80 28/74/76 136/75/7 134/79/7
f  135/79/1 29/78/77 31/82/81 133/83/82
f  132/84/83 134/80/78 135/81/79 133/85/84
f  32/82/85 30/78/80 134/79/7 132/83/86
f  38/86/87 11/44/39 10/45/40 44/87/88
f  9/45/42 12/44/41 38/86/89 44/87/90
f  133/83/82 31/82/81 43/88/91 131/89/92
f  131/90/93 132/84/83 133/85/84
f  43/88/94 32/82/85 132/83/86 131/89/95
f  62/91/96 64/62/59 22/63/60 37/92/97
f  63/65/62 64/64/61 62/93/98
f  21/63/64 63/62/63 62/91/96 37/92/99
f  12/44/41 13/47/46 36/94/100 38/86/89
f  36/94/101 14/47/43 11/44/39 38/86/87
f  13/47/46 15/51/50 35/95/102 36/94/100
f  35/95/103 16/51/47 14/47/43 36/94/101
f  15/51/50 17/55/54 34/96/104 35/95/102
f  34/96/105 18/55/51 16/51/47 35/95/103
f  17/55/54 19/59/58 33/97/106 34/96/104
f  33/97/107 20/59/55 18/55/51 34/96/105
f  19/59/58 21/63/64 37/92/99 33/97/106
f  37/92/97 22/63/60 20/59/55 33/97/107
f  44/87/88 10/45/40 24/66/68 42/98/108
f  23/66/65 9/45/42 44/87/90 42/98/109
f  42/98/108 24/66/68 26/70/72 41/99/110
f  25/70/69 23/66/65 42/98/109 41/99/111
f  41/99/110 26/70/72 28/74/76 40/100/112
f  27/74/73 25/70/69 41/99/111 40/100/113
f  40/100/112 28/74/76 30/78/80 39/101/114
f  29/78/77 27/74/73 40/100/113 39/101/115
f  39/101/114 30/78/80 32/82/85 43/88/94
f  31/82/81 29/78/77 39/101/115 43/88/91
f  61/102/116 85/2/6 4/3/5
f  3/3/3 86/2/2 61/102/116
f  61/103/116 83/6/10 81/5/9
f  61/102/116 4/3/5 83/9/10
f  61/102/116 81/9/9 3/3/3
f  47/104/117 86/2/2 88/1/1 45/105/118
f  87/1/7 85/2/6 48/104/119 46/105/120
f  74/7/121 73/6/122 71/5/123 72/8/124
f  46/105/120 48/104/119 73/9/122 74/10/121
f  71/9/123 47/104/117 45/105/118 72/10/124
f  45/105/118 88/1/1 114/11/1 49/106/125
f  113/11/7 87/1/7 46/105/120 50/106/126
f  100/13/127 72/10/124 45/105/118 49/106/125
f  50/106/126 46/105/120 74/10/121 99/13/128
f  49/106/125 114/11/1 126/14/17 51/107/129
f  125/14/19 113/11/7 50/106/126 52/107/130
f  118/16/131 100/13/127 49/106/125 51/107/129
f  52/107/130 50/106/126 99/13/128 117/16/132
f  117/19/132 99/18/128 100/17/127 118/20/131
f  51/107/129 126/14/17 142/21/1 130/108/133
f  141/21/7 125/14/19 52/107/130 129/108/134
f  128/23/135 118/16/131 51/107/129 130/108/133
f  129/108/134 52/107/130 117/16/132 127/23/136
f  127/24/136 117/19/132 118/20/131 128/25/135
f  100/17/127 99/18/128 97/26/137 98/27/138
f  92/30/139 74/7/121 72/8/124 91/31/140
f  98/27/138 97/26/137 95/32/141 96/33/142
f  90/36/143 92/30/139 91/31/140 89/37/144
f  96/33/142 95/32/141 94/38/145 93/39/146
f  70/42/147 90/36/143 89/37/144 69/43/148
f  176/48/149 70/42/147 69/43/148 177/49/150
f  178/53/151 176/48/149 177/49/150
f  93/39/146 94/38/145 115/68/152 116/69/153
f  116/69/153 115/68/152 179/73/154
f  85/2/6 61/102/116 48/104/119
f  86/2/2 47/104/117 61/102/116
f  73/6/122 61/103/116 71/5/123
f  48/104/119 61/102/116 73/9/122
f  71/9/123 61/102/116 47/104/117
f  143/109/23 157/110/155 159/111/156 142/112/1
f  158/111/157 156/110/158 140/109/24 141/112/7
f  155/113/159 157/110/155 143/109/23 139/114/25
f  156/110/158 154/115/160 138/116/26 140/109/24
f  154/115/160 155/113/159 139/114/25 138/116/26
f  159/111/156 149/117/161 130/118/133 142/119/1
f  129/118/134 148/117/162 158/111/157 141/119/7
f  130/118/133 149/117/161 147/113/163 128/114/135
f  127/116/136 146/115/164 148/117/162 129/118/134
f  128/114/135 147/113/163 146/115/164 127/116/136
f  175/120/165 153/121/166 53/122/167 55/123/168
f  54/122/169 152/121/170 174/120/171 56/123/172
f  53/122/167 151/124/173 173/125/174 55/123/168
f  150/124/175 54/122/169 56/123/172 172/125/176
f  170/126/177 175/120/165 55/123/168 171/127/178
f  56/123/172 174/120/171 169/126/179 168/127/180
f  55/123/168 173/125/174 167/128/181 171/127/178
f  172/125/176 56/123/172 168/127/180 166/128/182
f  153/121/166 159/129/156 157/130/155 53/122/167
f  54/122/169 156/130/158 158/129/157 152/121/170
f  53/122/167 157/130/155 155/131/159 151/124/173
f  150/124/175 154/131/160 156/130/158 54/122/169
f  57/132/183 153/121/166 175/120/165 59/133/184
f  174/120/171 152/121/170 58/132/185 60/133/186
f  161/125/187 145/124/188 57/132/183 59/133/184
f  60/133/186 58/132/185 144/124/189 160/125/190
f  59/133/184 175/120/165 170/126/177 165/134/191
f  169/126/179 174/120/171 60/133/186 164/134/192
f  163/128/193 161/125/187 59/133/184 165/134/191
f  164/134/192 60/133/186 160/125/190 162/128/194
f  149/135/161 159/136/156 153/121/166 57/132/183
f  158/136/157 148/135/162 58/132/185 152/121/170
f  147/131/163 149/135/161 57/132/183 145/124/188
f  148/135/162 146/131/164 144/124/189 58/132/185
f  151/137/173 150/138/175 172/139/176 173/140/174
f  173/140/174 172/139/176 166/141/182 167/142/181
f  151/137/173 155/143/159 154/144/160 150/138/175
f  160/139/190 144/138/189 145/137/188 161/140/187
f  162/141/194 160/139/190 161/140/187 163/142/193
f  146/144/164 147/143/163 145/137/188 144/138/189
f  168/145/180 169/146/179 170/147/177 171/148/178
f  166/149/182 168/145/180 171/148/178 167/150/181
f  170/147/177 169/146/179 164/151/192 165/152/191
f  165/152/191 164/151/192 162/153/194 163/154/193
f  196/155/195 185/156/195 189/157/196 194/158/197
f  188/157/198 184/156/199 197/155/199 195/158/200
f  194/158/197 189/157/196 187/159/7 192/160/7
f  186/159/1 188/157/198 195/158/200 193/160/1
f  192/160/7 187/159/7 183/161/201 191/162/202
f  182/161/203 186/159/1 193/160/1 190/162/204
f  191/162/202 183/161/201 198/163/205 181/164/206
f  199/163/207 182/161/203 190/162/204 180/164/208
f  181/164/206 198/165/205 200/166/209 201/167/210
f  200/166/211 199/163/207 180/164/208 201/167/212
