# 
# Wavefront OBJ file
# Converted by the DEEP Exploration Deep Exploration 5 5.0.3.1555 Release
# Right Hemisphere, LTD
# http://www.righthemisphere.com/
# 
mtllib lantern.mtl
# object object
g object
v -5.30622 -6.25776 11.19584
v 5.42466 4.10668 11.19584
v 5.42466 -6.25776 11.19584
v -5.30622 4.10668 11.19584
v 1.68239 20.00102 -4.96505
v 1.68239 20.00184 -1.86848
v -1.75505 20.00102 -4.96505
v -1.75505 20.00184 -1.86848
v 2.13882 20.00285 1.89710
v 2.13882 19.54641 1.89722
v 1.68239 20.00285 1.89710
v 1.68239 19.54641 1.89722
v -2.21148 19.54641 1.89722
v -1.75505 19.54641 1.89722
v -1.75505 20.00285 1.89710
v -2.21148 20.00285 1.89710
v 2.13882 20.00184 -1.86848
v 2.13882 20.00102 -4.96505
v 1.68239 19.54541 -1.86835
v 1.68239 19.54459 -4.96492
v 2.13882 19.54459 -4.96492
v 2.13882 19.54541 -1.86835
v -2.21148 20.00102 -4.96505
v -2.21148 20.00184 -1.86848
v -2.21148 19.54459 -4.96492
v -2.21148 19.54541 -1.86835
v -1.75505 19.54541 -1.86835
v -1.75505 19.54459 -4.96492
v 1.68239 19.54359 -8.73050
v 1.68239 20.00002 -8.73062
v 2.13882 20.00002 -8.73062
v 2.13882 19.54359 -8.73050
v -1.75505 20.00002 -8.73062
v -2.21148 20.00002 -8.73062
v -2.21148 19.54359 -8.73050
v -1.75505 19.54359 -8.73050
v 0.50192 11.52108 -2.59497
v 0.50192 11.52025 -3.86363
v 0.50192 9.94621 -3.14270
v 0.50192 8.76749 -3.81424
v 0.50192 7.81275 -3.81637
v 0.50192 6.76800 -3.26175
v 0.50192 10.98577 -4.11057
v -0.57458 11.52025 -3.86363
v -0.57458 11.52108 -2.59497
v -0.57458 9.94621 -3.14270
v -0.57458 7.81275 -3.81637
v -0.57458 6.76800 -3.26175
v -0.57458 10.98577 -4.11057
v -0.57458 8.76749 -3.81424
v 0.50192 9.07839 -5.41540
v 0.50192 7.81698 -5.44233
v -0.57458 9.07839 -5.41540
v -0.57458 7.81698 -5.44233
v 4.43081 3.07688 11.59507
v 4.08699 3.38097 11.27979
v 4.68926 3.38097 11.27979
v 4.68926 2.76694 11.27979
v 4.08699 2.76694 11.27979
v 5.76805 4.43835 11.60946
v 4.88812 3.58846 12.02309
v -4.25051 3.07688 11.59507
v -3.88053 2.76693 11.27979
v -4.53046 2.76693 11.27979
v -4.53046 3.38097 11.27979
v -3.88053 3.38097 11.27979
v -5.64961 4.43835 11.60946
v -4.76968 3.58846 12.02309
v 0.50192 4.10309 -1.38949
v 1.20806 0.87382 -0.83105
v 0.50192 0.87382 -0.83105
v 2.65254 1.42425 -0.74864
v 2.50065 1.24092 -0.55753
v 2.50065 1.61190 -0.55753
v 2.86452 1.61190 -1.01628
v 2.86452 1.24092 -0.55753
v -0.57458 4.10309 -1.38949
v -0.57458 0.87382 -0.83105
v -1.28072 0.87382 -0.83105
v -2.54280 1.42425 -0.74864
v -2.31306 1.61190 -0.55753
v -2.31306 1.24092 -0.55753
v -2.70572 1.24092 -0.55753
v -2.70572 1.61190 -1.01628
v 0.50192 5.42318 -4.16620
v 0.50192 3.50863 -2.65024
v 1.20806 0.87382 -1.90879
v 0.50192 0.87382 -1.90879
v -0.57458 5.42318 -4.16620
v -0.57458 0.87382 -1.90879
v -0.57458 3.50863 -2.65024
v -1.28072 0.87382 -1.90879
v 0.05922 -1.07554 19.46833
v 4.43081 -5.29732 11.59507
v 4.08699 -4.92851 11.27979
v 4.08699 -5.55751 11.27979
v 4.68926 -4.92851 11.27979
v 4.68926 -5.55751 11.27979
v 5.76805 -6.58942 11.60946
v 4.88812 -5.73954 12.02309
v -4.25051 -5.29732 11.59507
v -3.88053 -4.92851 11.27979
v -4.53046 -5.55751 11.27979
v -4.53046 -4.92851 11.27979
v -3.88053 -5.55751 11.27979
v -5.64961 -6.58942 11.60946
v -4.76968 -5.73954 12.02309
v 1.57841 -2.42025 -0.83105
v 0.50192 -3.04807 -0.83105
v 2.65254 -3.55221 -0.74864
v 2.50065 -3.40841 -0.55753
v 2.50065 -3.78843 -0.55753
v 2.86452 -3.78843 -1.01628
v 2.86452 -3.40841 -0.55753
v -1.65107 -2.42025 -0.83105
v -0.57458 -3.04807 -0.83105
v -2.54280 -3.55221 -0.74864
v -2.31306 -3.78843 -0.55753
v -2.70572 -3.40841 -0.55753
v -2.31306 -3.40841 -0.55753
v -2.70572 -3.78843 -1.01628
v 1.57841 -2.42025 -2.51972
v 0.50192 -3.04807 -2.51972
v -0.57458 -3.04807 -2.51972
v -1.65107 -2.42025 -2.51972
# 125 verticies
vt 0.03054 0.03054
vt 0.96946 0.03054
vt 0.03054 0.96946
vt 0.98985 0.98837
vt 0.02684 0.99124
vt 0.99272 0.02536
vt 0.96946 0.96946
vt 0.01564 0.01853
vt 0.96883 0.01569
vt 0.01280 0.97173
vt 0.02684 0.99124
vt 0.99272 0.02536
vt 0.00050 0.00050
vt 0.07749 0.07749
vt 0.07749 0.92251
vt 0.00050 0.99950
vt 0.99950 0.00050
vt 0.92251 0.07749
vt 0.92251 0.92251
vt 0.99950 0.99950
vt 0.99950 0.00050
vt 0.99950 0.99950
vt 0.00050 0.00050
vt 0.00050 0.99950
vt 0.96883 0.01569
vt 0.01280 0.97172
vt 0.01711 0.01777
vt 0.86473 0.86336
vt 0.13527 0.86336
vt 0.13527 0.13664
vt 0.86473 0.13664
vt -0.10369 1.02023
vt 0.13527 -0.02023
vt 0.18660 0.01858
vt -0.01873 1.02023
vt 0.86473 -0.02023
vt 0.81462 0.01858
vt 1.10369 1.02023
vt 1.02075 1.02023
vt -0.10369 1.02023
vt 0.13527 -0.02023
vt 0.18538 0.01858
vt -0.02075 1.02023
vt 0.86473 -0.02023
vt 0.81340 0.01858
vt 1.10369 1.02023
vt 1.01873 1.02023
vt 0.01858 0.18787
vt 0.01858 0.13664
vt 1.02023 -0.10142
vt 1.02023 -0.01663
vt 0.18538 0.81589
vt 0.18538 0.18787
vt 0.81340 0.18787
vt 0.81340 0.81589
vt 0.98142 0.81589
vt 0.98142 0.86336
vt -0.02023 1.10142
vt -0.02023 1.02285
vt -0.02023 1.10142
vt -0.02023 1.02285
vt 0.98142 0.81589
vt 1.02023 0.86336
vt 0.98142 0.18787
vt 1.02023 0.13664
vt -0.02023 -0.10142
vt -0.02023 -0.01663
vt 1.02023 -0.10142
vt 1.02023 -0.01663
vt 0.01858 0.18787
vt -0.02023 0.13664
vt -0.02023 0.86336
vt 0.01858 0.81589
vt 1.02023 1.10142
vt 1.02023 1.02285
vt 0.01858 0.81589
vt 1.02023 1.02285
vt 1.02023 1.10142
vt 0.01858 0.86336
vt 0.18538 0.86336
vt 0.81340 0.86336
vt 0.18538 0.13664
vt 0.81340 0.13664
vt 0.98142 0.18787
vt -0.02023 -0.01663
vt -0.02023 -0.10142
vt 0.98142 0.13664
vt 0.86473 0.81589
vt 0.86473 0.18787
vt 0.86473 0.01858
vt 0.13527 0.01858
vt -0.01873 1.02023
vt 0.13527 0.81589
vt 0.13527 0.18787
vt 0.13527 0.01858
vt 0.86473 0.01858
vt 0.07975 0.97170
vt 0.07975 0.02830
vt 0.96583 0.02830
vt 0.96583 0.97170
vt 0.55383 -0.26036
vt 0.55383 -0.65255
vt 0.66147 -0.58976
vt 0.62444 -0.26036
vt 0.44618 -0.26036
vt 0.44618 -0.65255
vt 0.37556 -0.26036
vt 0.33853 -0.58976
vt 0.44617 -0.26036
vt 0.37556 -0.26036
vt 0.33853 -0.58976
vt 0.44617 -0.65255
vt 0.55382 -0.26036
vt 0.55382 -0.65255
vt 0.62444 -0.26036
vt 0.66147 -0.58976
vt 0.33853 0.58970
vt 0.44617 0.58970
vt 0.44617 0.75856
vt 0.33853 0.75856
vt 0.55382 0.58970
vt 0.55382 0.75856
vt 0.66147 0.58970
vt 0.66147 0.75856
vt -0.58976 0.58970
vt -0.26036 0.65079
vt -0.26036 0.75856
vt -0.58976 0.75856
vt 0.37556 0.65079
vt 0.44618 0.65079
vt 0.44618 0.75856
vt 0.37556 0.75856
vt 0.67187 0.65482
vt 0.32813 0.65482
vt 0.32813 0.34517
vt 0.67187 0.34517
vt 0.55383 0.65079
vt 0.62444 0.65079
vt 0.62444 0.75856
vt 0.55383 0.75856
vt 1.26036 0.65079
vt 1.58976 0.58970
vt 1.58976 0.75856
vt 1.26036 0.75856
vt 0.55383 0.00312
vt 0.44618 0.00312
vt 0.93743 0.70272
vt 0.99688 0.57665
vt 0.55382 0.06257
vt 0.44618 0.06257
vt -0.26036 0.75856
vt -0.26036 0.65079
vt 0.00312 0.57665
vt 0.06257 0.70272
vt 0.55382 0.19458
vt 0.44618 0.19458
vt 0.67094 0.51550
vt 0.80542 0.42505
vt 0.55382 0.32906
vt 0.44618 0.32906
vt 0.19458 0.42505
vt 0.32906 0.51550
vt 0.55382 0.43396
vt 0.44618 0.43396
vt 0.56646 0.46003
vt 0.56604 0.29744
vt 0.55382 0.43354
vt 0.44618 0.43354
vt 0.43396 0.29744
vt 0.43354 0.46003
vt 0.55382 0.56010
vt 0.44618 0.56010
vt 0.47099 0.46025
vt 0.43990 0.30013
vt 0.55382 0.52901
vt 0.44618 0.52901
vt 0.56010 0.30013
vt 0.52901 0.46025
vt 0.55382 0.75084
vt 0.44618 0.75084
vt 0.35312 0.52740
vt 0.24916 0.43061
vt 0.55382 0.64688
vt 0.44618 0.64688
vt 0.75084 0.43061
vt 0.64688 0.52740
vt 0.55382 0.80429
vt 0.44618 0.80429
vt 0.19563 0.58217
vt 0.19571 0.45531
vt 0.55382 0.80437
vt 0.44618 0.80437
vt 0.80429 0.45531
vt 0.80437 0.58217
vt 0.67187 1.60672
vt 0.32813 1.60672
vt -0.60680 0.65483
vt -0.60672 0.34518
vt 0.67187 1.60680
vt 0.32813 1.60680
vt 1.60672 0.34518
vt 1.60680 0.65483
vt 0.67187 1.65226
vt 0.32813 1.65226
vt 0.32813 1.60662
vt 0.67187 1.60662
vt -0.65245 0.65482
vt -0.65236 0.34517
vt 0.67187 1.65255
vt 0.32813 1.65255
vt 0.32813 1.60690
vt 0.67187 1.60690
vt 1.65236 0.34517
vt 1.65245 0.65482
vt 0.67187 0.34518
vt 0.32813 0.34518
vt 0.32813 -0.03138
vt 0.67187 -0.03138
vt -0.65226 -0.03139
vt -0.60662 -0.03138
vt 0.32813 -0.03139
vt 0.67187 -0.03139
vt 1.60662 -0.03138
vt 1.65226 -0.03139
vt 0.32813 0.65483
vt 0.67187 0.65483
vt 0.67187 1.03139
vt 0.32813 1.03139
vt 1.65255 1.03138
vt 1.60690 1.03139
vt 0.67187 1.03138
vt 0.32813 1.03138
vt -0.60690 1.03139
vt -0.65255 1.03138
vt 0.28248 0.65483
vt 0.28248 0.34518
vt 0.28248 1.03139
vt 0.28248 1.65255
vt 0.28248 1.60690
vt 0.71752 0.65482
vt 0.71752 1.03138
vt 0.71752 0.34517
vt 0.71752 -0.03139
vt 0.71752 1.60662
vt 0.71752 1.65226
vt 0.28248 -0.03138
vt 0.71752 0.34518
vt 0.71752 0.65483
vt 0.71752 -0.03138
vt 0.28248 1.65226
vt 0.28248 1.60662
vt 0.28248 0.34517
vt 0.28248 -0.03139
vt 0.28248 0.65482
vt 0.28248 1.03138
vt 0.71752 1.60690
vt 0.71752 1.65255
vt 0.71752 0.65259
vt 0.71752 1.03139
# 259 texture verticies
vn 0.22810 -0.46258 -0.85674
vn -0.36060 -0.18282 -0.91463
vn 0.36060 0.18282 -0.91463
vn 0.00000 0.00000 1.00000
vn -0.29128 -0.39686 0.87044
vn 0.38944 -0.29616 0.87214
vn -0.22810 0.46257 -0.85674
vn -0.38944 0.29616 0.87214
vn 0.29128 0.39686 0.87044
vn -0.29613 -0.15231 0.94293
vn -0.14806 0.30462 0.94090
vn 0.14806 -0.30462 0.94090
vn 0.29613 0.15231 0.94293
vn -0.29953 -0.60744 -0.73573
vn -0.59906 0.30372 -0.74087
vn 0.59906 -0.30372 -0.74087
vn 0.29953 0.60743 -0.73574
vn 0.61705 0.61666 -0.48886
vn -0.04704 -0.93520 -0.35098
vn -0.69996 -0.45174 -0.55317
vn 0.06169 0.86893 -0.49107
vn 0.69158 -0.69216 -0.20647
vn 0.99522 0.07522 -0.06231
vn 0.94127 0.27071 0.20181
vn 0.98833 -0.00000 -0.15235
vn 0.80641 -0.31089 0.50304
vn 0.69208 0.69166 -0.20648
vn 0.98833 0.00000 -0.15235
vn -0.69360 0.69014 -0.20647
vn -0.99512 -0.07675 -0.06207
vn -0.87675 -0.25284 0.40912
vn -0.98833 0.00000 -0.15235
vn -0.90169 0.34667 0.25842
vn -0.69310 -0.69064 -0.20647
vn -0.98833 0.00000 -0.15235
vn 0.14665 0.29344 0.94466
vn -0.00000 0.99186 0.12737
vn 0.88082 0.44063 0.17322
vn -0.37258 -0.37283 0.84981
vn 0.20167 -0.40353 0.89246
vn -0.20161 0.40351 0.89249
vn -0.00000 -0.99179 0.12786
vn -0.69497 -0.69542 0.18278
vn -0.00000 -0.98902 -0.14781
vn -0.51167 -0.71282 0.47966
vn 0.46041 -0.86114 0.21557
vn 0.00000 -0.98902 -0.14781
vn -0.00000 0.98902 -0.14781
vn 0.46041 0.86114 0.21557
vn -0.30933 0.80525 0.50585
vn 0.00000 0.98902 -0.14781
vn -0.88056 0.44060 0.17459
vn -0.00000 0.99186 0.12737
vn 0.88079 -0.44060 0.17343
vn 0.00000 -0.99179 0.12786
vn -0.99114 0.00000 0.13282
vn 0.99135 0.00000 0.13127
vn -0.99114 0.00000 0.13282
vn 0.99135 -0.00000 0.13127
vn -0.43963 -0.87890 -0.18508
vn -0.87927 -0.43945 -0.18377
vn 0.43915 -0.87863 -0.18748
vn 0.87830 -0.43932 -0.18864
vn -0.69415 0.69457 -0.18903
vn 0.69335 0.69432 -0.19284
vn 0.69335 0.69432 -0.19284
vn -0.69415 0.69457 -0.18903
vn 0.01985 0.49266 -0.87000
vn 0.02983 0.15385 -0.98764
vn -0.63154 -0.42290 -0.64986
vn -0.75700 0.53545 -0.37450
vn 0.00000 0.18491 -0.98276
vn -0.03321 0.15967 -0.98661
vn 0.27454 0.74796 -0.60431
vn -0.09951 0.17062 -0.98030
vn -0.00000 0.26043 0.96549
vn 0.00000 0.47827 0.87821
vn -0.17325 -0.98488 0.00000
vn -0.34651 -0.93805 0.00000
vn -0.96852 -0.24896 0.00000
vn 0.34651 -0.93805 0.00000
vn 0.17325 -0.98488 0.00000
vn 0.96852 -0.24896 0.00000
vn 0.77804 -0.62821 0.00000
vn 0.85158 0.52422 0.00000
vn 0.00000 1.00000 -0.00027
vn 0.00000 1.00000 -0.00027
vn 0.00000 1.00000 -0.00027
vn 0.00000 1.00000 -0.00027
vn -0.42579 0.90482 -0.00000
vn 0.00000 -0.39433 -0.91897
vn 0.00000 -0.51302 -0.85838
vn -1.00000 -0.00000 0.00000
vn -1.00000 -0.00000 0.00000
vn -1.00000 -0.00000 0.00000
vn -1.00000 0.00000 0.00000
vn 0.00000 0.31193 0.95010
vn 0.00000 0.44972 0.89317
vn 1.00000 0.00000 -0.00000
vn 1.00000 0.00000 0.00000
vn 1.00000 0.00000 -0.00000
vn 1.00000 0.00000 -0.00000
vn 0.00000 -0.57272 -0.81975
vn 0.00000 -0.52242 -0.85269
vn -1.00000 -0.00000 0.00000
vn -1.00000 -0.00000 0.00000
vn 0.00000 0.54047 0.84136
vn 0.00000 0.50508 0.86307
vn 1.00000 0.00000 -0.00000
vn 1.00000 0.00000 -0.00000
vn 0.00000 -0.31560 -0.94889
vn 0.00000 -0.14681 -0.98917
vn -1.00000 -0.00000 0.00000
vn -1.00000 -0.00000 -0.00000
vn 0.00000 0.32035 0.94730
vn 0.00000 0.15903 0.98727
vn 1.00000 0.00000 -0.00000
vn 1.00000 0.00000 -0.00000
vn 0.00000 0.21018 -0.97766
vn 0.00000 0.39820 -0.91730
vn -1.00000 -0.00000 -0.00000
vn -1.00000 -0.00000 -0.00000
vn 0.00000 -0.17152 0.98518
vn 0.00000 -0.34075 0.94015
vn 1.00000 0.00000 0.00000
vn 1.00000 0.00000 0.00000
vn 0.00000 0.51783 -0.85549
vn 0.00000 0.46928 -0.88305
vn -1.00000 -0.00000 -0.00000
vn -1.00000 -0.00000 -0.00000
vn 0.00000 -0.44115 0.89743
vn 0.00000 -0.38544 0.92273
vn 1.00000 0.00000 0.00000
vn 1.00000 0.00000 0.00000
vn -0.72422 0.10012 -0.68227
vn 0.71906 0.00047 -0.69495
vn -0.70485 -0.15430 0.69237
vn 0.69680 -0.24287 0.67490
vn -0.20023 -0.89403 -0.40078
vn 0.33763 -0.92602 -0.16880
vn -0.34000 -0.92468 0.17138
vn 0.20338 -0.88927 0.40969
vn 0.00000 -0.00026 -1.00000
vn -1.00000 0.00000 0.00000
vn -1.00000 0.00000 0.00000
vn -1.00000 0.00000 0.00000
vn 0.00000 0.00027 1.00000
vn 1.00000 0.00000 0.00000
vn 0.00000 -1.00000 0.00027
vn 0.00000 -1.00000 0.00027
vn -1.00000 0.00000 0.00000
vn 0.00000 1.00000 -0.00027
vn 0.00000 -1.00000 0.00027
vn 0.00000 1.00000 -0.00027
vn 0.00000 -1.00000 0.00027
vn 0.00001 -1.00000 0.00027
vn 0.00000 1.00000 -0.00027
vn 0.00000 -1.00000 0.00027
vn 0.00000 -1.00000 0.00027
# 159 normals
usemtl m_3
f  3/1/1 1/2/2 2/3/3
f  93/4/4 107/5/5 100/6/6
f  2/3/3 1/2/2 4/7/7
f  93/8/4 68/9/8 107/10/5
f  61/11/9 68/12/8 93/4/4
f  106/13/10 107/14/5 68/15/8
f  68/15/8 67/16/11 106/13/10
f  107/14/5 106/13/10 99/17/12
f  99/17/12 100/18/6 107/14/5
f  67/16/11 68/15/8 61/19/9
f  61/19/9 60/20/13 67/16/11
f  100/18/6 99/17/12 60/20/13
f  60/20/13 61/19/9 100/18/6
f  1/2/2 106/21/14 67/22/15
f  67/22/15 4/7/7 1/2/2
f  106/21/14 1/2/2 3/1/1
f  3/1/1 99/23/16 106/21/14
f  60/24/17 2/3/3 4/7/7
f  4/7/7 67/22/15 60/24/17
f  2/3/3 60/24/17 99/23/16
f  99/23/16 3/1/1 2/3/3
f  100/25/6 61/26/9 93/27/4
f  75/28/18 113/29/19 121/30/20
f  121/30/20 84/31/21 75/28/18
f  98/32/22 113/33/23 114/34/24
f  114/34/24 97/35/25 98/32/22
f  114/34/24 113/33/23 75/36/18
f  76/37/26 114/34/24 75/36/18
f  57/38/27 58/39/28 76/37/26
f  76/37/26 75/36/18 57/38/27
f  65/40/29 84/41/30 83/42/31
f  83/42/31 64/43/32 65/40/29
f  83/42/31 84/41/30 121/44/20
f  119/45/33 83/42/31 121/44/20
f  103/46/34 104/47/35 119/45/33
f  119/45/33 121/44/20 103/46/34
f  120/48/36 119/49/33 104/50/37
f  104/50/37 102/51/38 120/48/36
f  73/52/39 82/53/40 120/54/36
f  120/54/36 111/55/41 73/52/39
f  73/56/39 76/57/26 58/58/42
f  58/58/42 59/59/43 73/56/39
f  98/60/22 96/61/44 112/62/45
f  113/63/19 98/60/22 112/62/45
f  113/63/19 112/62/45 118/64/46
f  121/65/20 113/63/19 118/64/46
f  103/66/34 121/65/20 118/64/46
f  103/66/34 118/64/46 105/67/47
f  65/68/29 66/69/48 81/70/49
f  84/71/21 65/68/29 81/70/49
f  75/72/18 84/71/21 81/70/49
f  75/72/18 81/70/49 74/73/50
f  57/74/27 75/72/18 74/73/50
f  57/74/27 74/73/50 56/75/51
f  111/76/41 95/77/52 97/78/53
f  97/78/53 114/79/24 111/76/41
f  76/80/26 73/52/39 111/55/41
f  111/55/41 114/81/24 76/80/26
f  120/54/36 82/53/40 83/82/31
f  83/82/31 119/83/33 120/54/36
f  82/84/40 63/85/54 64/86/55
f  64/86/55 83/87/31 82/84/40
f  112/88/45 111/55/41 120/54/36
f  120/54/36 118/89/46 112/88/45
f  95/47/52 111/45/41 112/90/45
f  112/90/45 96/46/56 95/47/52
f  118/91/46 120/34/36 102/92/38
f  102/92/38 105/32/57 118/91/46
f  82/53/40 73/52/39 74/93/50
f  74/93/50 81/94/49 82/53/40
f  73/42/39 59/43/43 56/40/58
f  56/40/58 74/95/50 73/42/39
f  63/39/54 82/37/40 81/96/49
f  81/96/49 66/38/59 63/39/54
usemtl b_1
f  101/97/60 117/98/61 110/99/62
f  110/99/62 94/100/63 101/97/60
f  62/100/64 55/97/65 72/98/66
f  72/98/66 80/99/67 62/100/64
f  62/100/64 80/97/67 117/98/61
f  117/98/61 101/99/60 62/100/64
f  94/98/63 110/99/62 72/100/66
f  72/100/66 55/97/65 94/98/63
usemtl m_3
f  90/101/68 124/102/69 125/103/70
f  125/103/70 92/104/71 90/101/68
f  88/105/72 123/106/73 124/102/69
f  124/102/69 90/101/68 88/105/72
f  87/107/74 122/108/75 123/106/73
f  123/106/73 88/105/72 87/107/74
f  78/109/76 79/110/4 115/111/4
f  115/111/4 116/112/4 78/109/76
f  71/113/77 78/109/76 116/112/4
f  116/112/4 109/114/4 71/113/77
f  70/115/4 71/113/77 109/114/4
f  109/114/4 108/116/4 70/115/4
f  125/117/70 124/118/78 116/119/79
f  116/119/79 115/120/80 125/117/70
f  124/118/78 123/121/81 109/122/82
f  109/122/82 116/119/79 124/118/78
f  123/121/81 122/123/83 108/124/84
f  108/124/84 109/122/82 123/121/81
f  122/125/83 87/126/74 70/127/85
f  70/127/85 108/128/84 122/125/83
f  87/129/74 88/130/72 71/131/77
f  71/131/77 70/132/85 87/129/74
f  8/133/86 6/134/87 5/135/88
f  5/135/88 7/136/89 8/133/86
f  90/137/68 92/138/71 79/139/90
f  79/139/90 78/140/76 90/137/68
f  92/141/71 125/142/70 115/143/80
f  115/143/80 79/144/90 92/141/71
f  91/145/91 86/146/92 88/105/72
f  88/105/72 90/101/68 91/145/91
f  90/141/93 78/144/94 77/147/95
f  77/147/95 91/148/96 90/141/93
f  69/149/97 77/150/98 78/109/76
f  78/109/76 71/113/77 69/149/97
f  71/151/99 88/152/100 86/153/101
f  86/153/101 69/154/102 71/151/99
f  89/155/103 85/156/104 86/146/92
f  86/146/92 91/145/91 89/155/103
f  91/148/96 77/147/95 48/157/105
f  48/157/105 89/158/106 91/148/96
f  77/150/98 69/149/97 42/159/107
f  42/159/107 48/160/108 77/150/98
f  69/154/102 86/153/101 85/161/109
f  85/161/109 42/162/110 69/154/102
f  54/163/111 52/164/112 85/156/104
f  85/156/104 89/155/103 54/163/111
f  89/158/106 48/157/105 47/165/113
f  47/165/113 54/166/114 89/158/106
f  48/160/108 42/159/107 41/167/115
f  41/167/115 47/168/116 48/160/108
f  42/162/110 85/161/109 52/169/117
f  52/169/117 41/170/118 42/162/110
f  53/171/119 51/172/120 52/164/112
f  52/164/112 54/163/111 53/171/119
f  54/166/114 47/165/113 50/173/121
f  50/173/121 53/174/122 54/166/114
f  47/168/116 41/167/115 40/175/123
f  40/175/123 50/176/124 47/168/116
f  41/170/118 52/169/117 51/177/125
f  51/177/125 40/178/126 41/170/118
f  49/179/127 43/180/128 51/172/120
f  51/172/120 53/171/119 49/179/127
f  53/174/122 50/173/121 46/181/129
f  46/181/129 49/182/130 53/174/122
f  50/176/124 40/175/123 39/183/131
f  39/183/131 46/184/132 50/176/124
f  40/178/126 51/177/125 43/185/133
f  43/185/133 39/186/134 40/178/126
f  44/187/135 38/188/136 43/180/128
f  43/180/128 49/179/127 44/187/135
f  49/182/130 46/181/129 45/189/137
f  45/189/137 44/190/135 49/182/130
f  46/184/132 39/183/131 37/191/138
f  37/191/138 45/192/137 46/184/132
f  39/186/134 43/185/133 38/193/136
f  38/193/136 37/194/138 39/186/134
f  28/195/139 20/196/140 38/188/136
f  38/188/136 44/187/135 28/195/139
f  44/190/135 45/189/137 27/197/141
f  27/197/141 28/198/139 44/190/135
f  45/192/137 37/191/138 19/199/142
f  19/199/142 27/200/141 45/192/137
f  37/194/138 38/193/136 20/201/140
f  20/201/140 19/202/142 37/194/138
f  33/203/143 30/204/143 29/205/143
f  29/205/143 36/206/143 33/203/143
f  24/207/144 23/208/145 25/198/144
f  25/198/144 26/197/146 24/207/144
f  11/209/147 15/210/147 14/211/147
f  14/211/147 12/212/147 11/209/147
f  18/213/148 17/214/148 22/202/148
f  22/202/148 21/201/148 18/213/148
f  20/215/140 28/216/139 36/217/149
f  36/217/149 29/218/150 20/215/140
f  34/219/151 35/220/151 25/198/144
f  25/198/144 23/208/145 34/219/151
f  7/136/89 5/135/88 30/221/152
f  30/221/152 33/222/152 7/136/89
f  32/223/148 31/224/148 18/213/148
f  18/213/148 21/201/148 32/223/148
f  27/225/141 19/226/142 12/227/153
f  12/227/153 14/228/153 27/225/141
f  9/229/148 10/230/148 22/202/148
f  22/202/148 17/214/148 9/229/148
f  6/134/87 8/133/86 15/231/154
f  15/231/154 11/232/154 6/134/87
f  13/233/151 16/234/151 24/207/144
f  24/207/144 26/197/146 13/233/151
f  28/216/139 27/225/141 26/235/155
f  26/235/155 25/236/156 28/216/139
f  27/225/141 14/228/153 13/237/153
f  13/237/153 26/235/155 27/225/141
f  14/211/147 15/210/147 16/238/147
f  16/238/147 13/239/147 14/211/147
f  15/231/154 8/133/86 24/240/157
f  24/240/157 16/241/154 15/231/154
f  8/133/86 7/136/89 23/242/88
f  23/242/88 24/240/157 8/133/86
f  7/136/89 33/222/152 34/243/152
f  34/243/152 23/242/88 7/136/89
f  33/203/143 36/206/143 35/244/143
f  35/244/143 34/245/143 33/203/143
f  36/217/149 28/216/139 25/236/156
f  25/236/156 35/246/150 36/217/149
f  19/226/142 20/215/140 21/247/158
f  21/247/158 22/248/159 19/226/142
f  20/215/140 29/218/150 32/249/150
f  32/249/150 21/247/158 20/215/140
f  29/205/143 30/204/143 31/250/143
f  31/250/143 32/251/143 29/205/143
f  30/221/152 5/135/88 18/252/89
f  18/252/89 31/253/152 30/221/152
f  5/135/88 6/134/87 17/254/86
f  17/254/86 18/252/89 5/135/88
f  6/134/87 11/232/154 9/255/154
f  9/255/154 17/254/86 6/134/87
f  11/209/147 12/212/147 10/256/147
f  10/256/147 9/257/147 11/209/147
f  12/227/153 19/226/142 22/248/159
f  22/258/159 10/259/153 12/227/153
