# 
# Wavefront OBJ file
# Converted by the DEEP Exploration Deep Exploration 5 5.0.3.1555 Release
# Right Hemisphere, LTD
# http://www.righthemisphere.com/
# 
mtllib pincer.mtl
# object object
g object
v 14.21286 2.35954 1.90763
v 14.21035 2.71777 1.90763
v 14.19548 2.35943 1.14798
v 14.19295 2.71765 1.14798
v -3.57576 1.35719 2.64214
v -3.60812 1.35696 1.22885
v -5.73712 1.34202 2.69164
v -5.76950 1.34178 1.27835
v -7.00312 1.33784 1.07756
v -6.96027 1.33814 2.94869
v -7.01002 2.32059 1.07756
v -6.96718 2.32089 2.94869
v -8.34758 2.31121 1.10819
v -9.67246 0.53061 1.13882
v -9.63223 0.90380 3.00995
v -8.30474 2.31150 2.97932
v -9.62961 0.53091 3.00995
v -8.29784 1.32874 2.97932
v -8.34069 1.32844 1.10819
v -9.67508 0.90350 1.13882
v 14.24333 -1.98028 1.90763
v 14.24082 -1.62205 1.90763
v 14.22593 -1.98040 1.14798
v 14.22342 -1.62217 1.14798
v -3.60053 0.27600 1.22885
v -3.59295 -0.80497 1.22885
v -3.56816 0.27623 2.64214
v -3.56058 -0.80474 2.64214
v -5.76191 0.26081 1.27835
v -5.72953 0.26105 2.69164
v -5.75432 -0.82015 1.27835
v -5.72194 -0.81992 2.69164
v -6.98105 -1.78691 1.07756
v -6.98808 -0.80425 1.07756
v -6.94524 -0.80395 2.94869
v -6.93819 -1.78661 2.94869
v -8.32551 -0.81355 1.10819
v -8.31862 -1.79630 1.10819
v -8.27576 -1.79600 2.97932
v -9.62566 -0.03408 3.00995
v -9.66850 -0.03439 1.13883
v -8.28266 -0.81324 2.97932
v -9.62304 -0.40698 3.00995
v -9.66588 -0.40728 1.13883
# 44 verticies
vt 0.44567 1.04554
vt 0.44982 0.89522
vt 0.56419 1.04780
vt 0.56834 0.89747
vt 0.43581 1.14909
vt 0.43166 0.99877
vt 0.55433 1.14684
vt 0.55018 0.99652
vt 0.11859 0.48858
vt 0.11940 0.42488
vt 0.14350 0.48858
vt 0.14432 0.42488
vt -0.12271 0.42411
vt -0.12070 0.58102
vt -0.14865 0.42411
vt -0.14664 0.58102
vt -0.05748 0.42411
vt -0.05548 0.58102
vt -0.08342 0.42411
vt -0.08141 0.58102
vt -0.18324 0.48858
vt -0.18243 0.42488
vt -0.15833 0.48858
vt -0.15751 0.42488
vt -0.05021 0.57589
vt -0.05222 0.41898
vt 0.08260 0.55433
vt 0.08108 0.43581
vt 1.12057 0.41898
vt 1.11856 0.57589
vt 0.99410 0.43581
vt 0.99258 0.55433
vt 0.57588 1.27679
vt 0.41898 1.27977
vt 0.58102 1.23374
vt 0.42412 1.23076
vt 0.56419 1.09844
vt 0.44567 1.09619
vt 0.55018 0.94587
vt 0.43166 0.94812
vt 0.48858 -0.38351
vt 0.42488 -0.38230
vt 0.85568 -0.39908
vt 0.88060 -0.38230
vt 0.10717 0.89747
vt 0.18235 0.94812
vt 0.57512 -0.39908
vt 0.51142 -0.40029
vt 0.14350 -0.40029
vt 0.89131 0.89522
vt 0.11859 -0.38351
vt 0.81613 0.94587
vt 0.48858 -0.18017
vt 0.42488 -0.17896
vt 1.18243 -0.17896
vt 0.25753 0.99877
vt 1.15751 -0.19575
vt 0.56834 0.94812
vt 0.44982 0.94587
vt 0.57512 -0.19575
vt 0.51142 -0.19696
vt -0.18324 -0.18017
vt -0.15833 -0.19696
vt 0.74095 0.99652
vt 0.00590 1.04780
vt 0.08108 1.09844
vt 0.15627 1.14909
vt 0.84222 1.14684
vt 0.91740 1.09619
vt 0.99258 1.04554
vt 0.41898 1.13337
vt 0.57589 1.13039
vt 0.42155 1.22640
vt 0.57845 1.22342
vt 0.42411 1.35635
vt 0.58102 1.35337
vt 0.42411 1.08435
vt 0.58102 1.08733
vt 0.42155 1.17737
vt 0.57845 1.18035
vt 0.41898 1.33590
vt 0.57589 1.33888
vt 0.42155 1.37279
vt 0.57845 1.36981
vt 0.10244 0.42155
vt 0.10445 0.57845
vt 0.42155 1.32377
vt 0.57845 1.32675
vt 0.96390 0.57845
vt 0.96591 0.42155
vt 1.08141 0.58102
vt 1.08342 0.42411
vt 1.05021 1.13039
vt 1.11856 1.08435
vt 1.11288 1.22342
vt 1.18123 1.17737
vt 1.14664 1.33590
vt 1.12070 1.35337
vt -0.12271 1.35635
vt -0.14865 1.33888
vt -0.11489 1.22640
vt -0.18324 1.18035
vt -0.12057 1.08733
vt -0.05222 1.13337
vt 1.08141 1.37984
vt 1.05548 1.39731
vt 0.96390 1.32377
vt 0.89555 1.36981
vt 0.90123 1.23076
vt 0.83288 1.27679
vt 0.09676 1.23374
vt 0.16511 1.27977
vt 0.10244 1.37279
vt 0.03409 1.32675
vt -0.05748 1.40029
vt 0.03409 1.32034
vt -0.08342 1.38282
# 117 texture verticies
vn 0.29121 0.49654 0.81770
vn -0.04164 0.99913 0.00079
vn 0.31092 0.72736 -0.61178
vn -0.04164 0.99913 0.00079
vn 0.25715 -0.49502 -0.82996
vn -0.02942 -0.99957 0.00084
vn 0.34373 -0.72562 0.59608
vn -0.02942 -0.99957 0.00083
vn 0.42595 -0.64112 0.63838
vn 0.68019 -0.31617 -0.66135
vn 0.90598 0.00637 0.42326
vn 0.69732 0.00493 -0.71674
vn -0.99971 -0.00702 0.02289
vn -0.99971 -0.00702 0.02289
vn -0.97070 0.23928 0.02219
vn -0.87370 0.48606 0.01993
vn -0.86678 -0.49829 0.01993
vn -0.96724 -0.25289 0.02219
vn -0.99971 -0.00702 0.02289
vn 0.72940 0.00511 0.68407
vn 0.88566 0.00621 -0.46429
vn 0.70586 0.32553 0.62912
vn 0.38926 0.64608 -0.65655
vn -0.22725 -0.97382 0.00536
vn -0.46195 -0.88684 0.01072
vn -0.65671 -0.75399 0.01516
vn -0.65671 -0.75399 0.01517
vn 0.17360 0.66988 -0.72189
vn 0.35513 0.61405 0.70486
vn 0.24560 -0.79193 0.55905
vn 0.39075 -0.72412 -0.56829
vn -0.23674 0.97156 0.00526
vn -0.46613 0.88465 0.01053
vn -0.65708 0.75367 0.01493
vn -0.65708 0.75367 0.01493
vn 0.11627 -0.99321 -0.00250
vn 0.11627 -0.99321 -0.00251
vn -0.01372 -0.00010 -0.99991
vn -0.01372 -0.00010 -0.99991
vn -0.07621 0.99709 0.00159
vn -0.07621 0.99709 0.00159
vn 0.03207 0.00022 0.99949
vn 0.03207 0.00023 0.99949
vn -0.06582 -0.99783 0.00167
vn -0.06582 -0.99783 0.00167
vn -0.01372 -0.00010 -0.99991
vn 0.10588 0.99438 -0.00259
vn 0.10588 0.99438 -0.00258
vn 0.03207 0.00023 0.99949
vn 0.03843 0.00027 -0.99926
vn 0.08413 0.00059 0.99645
vn 0.18159 -0.98337 -0.00400
vn 0.35593 -0.93448 -0.00800
vn 0.51368 -0.85790 -0.01163
vn 0.51368 -0.85790 -0.01163
vn -0.26602 0.96395 0.00594
vn -0.52448 0.85134 0.01187
vn -0.25246 -0.96759 0.00594
vn -0.51247 -0.85862 0.01187
vn 0.16781 0.98581 -0.00400
vn 0.34280 0.93938 -0.00800
vn 0.50160 0.86502 -0.01163
vn 0.50160 0.86502 -0.01163
vn 0.14528 0.00102 0.98939
vn 0.02290 0.00016 0.99974
vn 0.02290 0.00016 0.99974
vn 0.02290 0.00016 0.99974
vn 0.02290 0.00016 0.99974
vn -0.02290 -0.00016 -0.99974
vn -0.02290 -0.00016 -0.99974
vn -0.02289 -0.00016 -0.99974
vn -0.02289 -0.00016 -0.99974
vn 0.09984 0.00070 -0.99500
vn 0.02289 0.00016 0.99974
vn 0.02289 0.00016 0.99974
vn 0.02290 0.00016 0.99974
vn 0.02290 0.00016 0.99974
vn 0.11476 0.00081 0.99339
vn 0.06917 0.00049 -0.99760
vn -0.02290 -0.00016 -0.99974
vn -0.02290 -0.00016 -0.99974
vn -0.02290 -0.00016 -0.99974
vn -0.02290 -0.00016 -0.99974
# 83 normals
usemtl _8___Default
f  7/1/1 5/2/2 8/3/3
f  6/4/4 8/3/3 5/2/2
f  31/5/5 26/6/6 32/7/7
f  28/8/8 32/7/7 26/6/6
f  1/9/9 3/10/10 2/11/11
f  4/12/12 2/11/11 3/10/10
f  14/13/13 17/14/14 20/15/15
f  15/16/16 20/15/15 17/14/14
f  44/17/17 43/18/18 41/19/19
f  40/20/19 41/19/19 43/18/18
f  21/21/20 23/22/21 22/23/22
f  24/24/23 22/23/22 23/22/21
f  10/25/24 9/26/25 30/27/26
f  29/28/27 30/27/26 9/26/25
f  11/29/28 12/30/29 8/31/3
f  7/32/1 8/31/3 12/30/29
f  36/33/30 33/34/31 32/7/7
f  31/5/5 32/7/7 33/34/31
f  34/35/32 35/36/33 29/37/34
f  30/38/35 29/37/34 35/36/33
f  27/39/36 25/40/37 1/41/9
f  3/42/10 1/41/9 25/40/37
f  4/43/12 3/44/10 6/45/38
f  25/46/39 6/45/38 3/44/10
f  6/4/4 5/2/2 4/47/40
f  2/48/41 4/47/40 5/2/2
f  2/49/11 5/50/42 1/51/9
f  27/52/43 1/51/9 5/50/42
f  28/8/8 26/6/6 21/53/44
f  23/54/45 21/53/44 26/6/6
f  23/55/21 26/56/46 24/57/23
f  25/46/39 24/57/23 26/56/46
f  25/58/47 27/59/48 24/60/23
f  22/61/22 24/60/23 27/59/48
f  21/62/20 22/63/22 28/64/49
f  27/52/43 28/64/49 22/63/22
f  8/65/3 6/45/38 29/66/50
f  25/46/39 29/66/50 6/45/38
f  26/56/46 29/66/50 25/46/39
f  29/66/50 26/56/46 31/67/5
f  32/68/7 28/64/49 30/69/51
f  27/52/43 30/69/51 28/64/49
f  5/50/42 30/69/51 27/52/43
f  30/69/51 5/50/42 7/70/1
f  9/71/25 10/72/24 19/73/52
f  18/74/53 19/73/52 10/72/24
f  19/73/52 18/74/53 14/75/54
f  17/76/55 14/75/54 18/74/53
f  12/77/29 11/78/28 16/79/56
f  13/80/57 16/79/56 11/78/28
f  16/79/56 13/80/57 15/81/16
f  20/82/15 15/81/16 13/80/57
f  33/34/31 36/33/30 38/83/58
f  39/84/59 38/83/58 36/33/30
f  38/85/58 39/86/59 44/17/17
f  43/18/18 44/17/17 39/86/59
f  35/36/33 34/35/32 42/87/60
f  37/88/61 42/87/60 34/35/32
f  42/89/60 37/90/61 40/91/62
f  41/92/63 40/91/62 37/90/61
f  30/69/51 7/70/1 10/93/64
f  12/94/29 10/93/64 7/70/1
f  10/93/64 12/94/29 18/95/65
f  16/96/66 18/95/65 12/94/29
f  15/97/67 18/95/65 16/96/66
f  18/95/65 15/97/67 17/98/68
f  14/99/69 20/100/70 19/101/71
f  13/102/72 19/101/71 20/100/70
f  11/103/28 19/101/71 13/102/72
f  19/101/71 11/103/28 9/104/73
f  8/65/3 9/104/73 11/103/28
f  9/104/73 8/65/3 29/66/50
f  40/105/74 43/106/75 42/107/76
f  39/108/77 42/107/76 43/106/75
f  42/107/76 39/108/77 35/109/78
f  36/110/30 35/109/78 39/108/77
f  32/68/7 35/109/78 36/110/30
f  35/109/78 32/68/7 30/69/51
f  29/66/50 31/67/5 34/111/79
f  33/112/31 34/111/79 31/67/5
f  38/113/80 34/111/79 33/112/31
f  34/111/79 38/113/80 37/114/81
f  44/115/82 37/114/81 38/113/80
f  37/116/81 44/115/82 41/117/83
