# 
# Wavefront OBJ file
# Converted by the DEEP Exploration Deep Exploration 5 5.0.3.1555 Release
# Right Hemisphere, LTD
# http://www.righthemisphere.com/
# 
mtllib shield_deco3.mtl
# object object
g object
v 0.12156 0.06194 31.25000
v -11.20381 2.05891 29.00023
v -2.83280 0.58290 -25.50008
v 0.61427 -0.02486 -29.25000
v -20.06689 3.62171 25.25031
v -8.74152 1.62483 -19.00003
v 2.98117 0.64446 -25.50008
v 8.36118 1.78798 -19.25021
v 13.00717 2.77555 -11.50019
v 16.43087 3.50320 -4.00035
v 19.12119 4.07501 3.50041
v 20.09903 4.28289 7.74976
v 19.85457 4.23095 16.74976
v 19.12119 4.07501 25.99993
v 9.82857 2.09985 29.25041
v -21.05168 3.79539 16.49958
v -21.29803 3.83884 10.24971
v -19.82054 3.57835 3.25023
v -17.35889 3.14419 -4.24961
v -13.66546 2.49307 -11.25002
v -2.83280 -1.16708 -25.50008
v -8.74152 -0.12515 -19.00003
v 0.61427 -1.77484 -29.25000
v 2.98117 -1.10561 -25.50008
v 8.36118 0.03800 -19.25021
v -17.35889 1.39420 -4.24961
v -13.66546 0.74300 -11.25002
v 13.00717 1.02548 -11.50019
v 16.43087 1.75322 -4.00035
v -21.29803 2.08876 10.24971
v -19.82054 1.82828 3.25023
v 19.12056 2.32503 3.50041
v 20.09903 2.53291 7.74976
v -11.20381 0.30892 29.00023
v -20.06689 1.87172 25.25031
v -21.05168 2.04541 16.49958
v 0.12156 -1.68804 31.25000
v 19.85457 2.48087 16.74976
v 19.12056 2.32503 25.99993
v 9.82857 0.34978 29.25041
# 40 verticies
vt 0.48828 0.01172
vt 0.30469 0.04688
vt 0.49609 0.97266
vt 0.44141 0.91406
vt 0.16016 0.10547
vt 0.34375 0.80859
vt 0.53516 0.91406
vt 0.62500 0.81250
vt 0.69922 0.69141
vt 0.75781 0.57031
vt 0.80078 0.45313
vt 0.81641 0.38281
vt 0.81250 0.24219
vt 0.80078 0.09375
vt 0.64844 0.04297
vt 0.14063 0.24609
vt 0.13672 0.34375
vt 0.16406 0.45703
vt 0.20313 0.57422
vt 0.26172 0.68750
vt 0.35938 0.76563
vt 0.30859 0.70313
vt 0.35938 0.82031
vt 0.30859 0.75781
vt 0.34375 0.75000
vt 0.35938 0.76953
vt 0.34375 0.80469
vt 0.35938 0.82422
vt 0.26953 0.65234
vt 0.26953 0.70703
vt 0.32031 0.71484
vt 0.32031 0.76953
vt 0.35156 0.80078
vt 0.35547 0.78906
vt 0.39063 0.80469
vt 0.37500 0.82031
vt 0.41406 0.83203
vt 0.35938 0.81641
vt 0.42969 0.85547
vt 0.37891 0.83594
vt 0.44141 0.87109
vt 0.39063 0.85156
vt 0.44531 0.87500
vt 0.39453 0.85938
vt 0.39844 0.81250
vt 0.34375 0.79297
vt 0.26563 0.64844
vt 0.26563 0.70313
vt 0.26172 0.64844
vt 0.26172 0.70313
vt 0.26953 0.65625
vt 0.26953 0.71094
vt 0.28125 0.66797
vt 0.28125 0.72266
vt 0.29688 0.68750
vt 0.29688 0.74219
vt 0.32031 0.77119
# 57 texture verticies
vn 0.15077 -0.94700 0.28365
vn -0.34361 -0.67901 0.64875
vn -0.46153 -0.83898 -0.28827
vn -0.60658 -0.65565 -0.44965
vn -0.67493 -0.68805 0.26657
vn -0.47703 -0.83746 -0.26667
vn 0.80649 -0.39693 -0.43821
vn 0.72787 -0.49846 -0.47090
vn 0.74591 -0.50533 -0.43389
vn 0.79317 -0.50198 -0.34481
vn 0.81979 -0.50032 -0.27860
vn 0.84293 -0.49931 -0.20041
vn 0.86509 -0.49973 -0.04340
vn 0.86613 -0.49760 0.04707
vn 0.59884 -0.56764 0.56495
vn 0.29357 -0.30727 0.90521
vn -0.86030 -0.50741 0.04911
vn -0.85489 -0.50972 -0.09671
vn -0.83362 -0.50897 -0.21454
vn -0.79618 -0.51143 -0.32330
vn -0.83254 -0.29856 -0.46662
vn 0.07081 0.00000 0.99749
vn -0.26099 0.00000 0.96534
vn -0.73871 0.00000 -0.67402
vn -0.73621 0.00000 -0.67675
vn -0.67203 0.00000 0.74053
vn -0.81201 0.00000 -0.58364
vn 0.84564 0.00000 -0.53376
vn 0.81837 0.00000 -0.57470
vn 0.79372 0.00000 -0.60829
vn 0.87624 0.00000 -0.48187
vn 0.92094 0.00000 -0.38969
vn 0.95386 -0.00023 -0.30026
vn 0.98994 -0.00012 -0.14150
vn 0.99901 0.00000 0.04446
vn 0.90355 -0.00019 0.42848
vn 0.28795 -0.00004 0.95764
vn -0.99614 0.00000 0.08773
vn -0.99908 0.00000 -0.04288
vn -0.97029 0.00000 -0.24196
vn -0.93117 0.00000 -0.36460
vn -0.87161 0.00000 -0.49020
# 42 normals
usemtl mat_shield_deco3
f  37/1/1 34/2/2 23/3/3
f  34/2/2 21/4/4 23/3/3
f  34/2/2 35/5/5 21/4/4
f  35/5/5 22/6/6 21/4/4
f  37/1/1 23/3/7 24/7/8
f  37/1/1 24/7/8 25/8/9
f  37/1/1 25/8/9 28/9/10
f  37/1/1 28/9/10 29/10/11
f  37/1/1 29/10/11 32/11/12
f  37/1/1 32/11/12 33/12/13
f  37/1/1 33/12/13 38/13/14
f  39/14/15 37/1/1 38/13/14
f  40/15/16 37/1/1 39/14/15
f  35/5/5 36/16/17 22/6/6
f  36/16/17 30/17/18 22/6/6
f  30/17/18 31/18/19 22/6/6
f  31/18/19 26/19/20 22/6/6
f  26/19/20 27/20/21 22/6/6
f  1/21/22 2/22/23 37/23/1
f  2/22/23 34/24/2 37/23/1
f  3/25/24 4/26/25 21/27/4
f  4/26/25 23/28/3 21/27/4
f  2/22/23 5/29/26 34/24/2
f  5/29/26 35/30/5 34/24/2
f  6/31/27 3/25/24 22/32/6
f  3/25/24 21/27/4 22/32/6
f  4/26/28 7/33/29 23/28/7
f  7/33/29 24/34/8 23/28/7
f  7/33/29 8/35/30 24/34/8
f  8/35/30 25/36/9 24/34/8
f  8/35/30 9/37/31 25/36/9
f  9/37/31 28/38/10 25/36/9
f  9/37/31 10/39/32 28/38/10
f  10/39/32 29/40/11 28/38/10
f  10/39/32 11/41/33 29/40/11
f  11/41/33 32/42/12 29/40/11
f  11/41/33 12/43/34 32/42/12
f  12/43/34 33/44/13 32/42/12
f  12/43/34 13/43/35 33/44/13
f  13/43/35 38/44/14 33/44/13
f  13/43/35 14/41/36 38/44/14
f  14/41/36 39/42/15 38/44/14
f  14/41/36 15/45/37 39/42/15
f  15/45/37 40/46/16 39/42/15
f  15/45/37 1/21/22 40/46/16
f  1/21/22 37/23/1 40/46/16
f  5/29/26 16/47/38 35/30/5
f  16/47/38 36/48/17 35/30/5
f  16/47/38 17/49/39 36/48/17
f  17/49/39 30/50/18 36/48/17
f  17/49/39 18/51/40 30/50/18
f  18/51/40 31/52/19 30/50/18
f  18/51/40 19/53/41 31/52/19
f  19/53/41 26/54/20 31/52/19
f  19/53/41 20/55/42 26/54/20
f  20/55/42 27/56/21 26/54/20
f  20/55/42 6/31/27 27/56/21
f  6/31/27 22/57/6 27/56/21
